<svg class="svg-icon" style="width: 1em; height: 1em;vertical-align: middle;fill: currentColor;overflow: hidden;" viewBox="0 0 1024 1024" version="1.1" xmlns="http://www.w3.org/2000/svg"><path d="M732.891429 271.847619h142.872381v589.531429c0 30.47619-23.161905 53.638095-53.638096 53.638095H250.63619c-30.47619 0-53.638095-23.161905-53.638095-53.638095v-714.361905c0-30.47619 23.161905-53.638095 53.638095-53.638095H697.295238v142.872381h35.84v35.59619z m-53.638096-17.798095V111.177143H250.63619c-19.748571 0-35.84 16.091429-35.84 35.84v714.361905c0 19.748571 16.091429 35.84 35.84 35.84h571.489524c19.748571 0 35.84-16.091429 35.84-35.84V289.645714h-142.872381v-35.84h-35.84z m0 0" fill="#9FA0A6" /><path d="M706.072381 289.645714h-26.819048V93.135238h17.798096v17.798095h17.798095v17.798096h17.798095v17.798095h17.798095v17.798095h17.798096v17.798095h17.798095V199.92381h17.798095v17.798095h17.798095v17.798095h17.798095v17.798095h17.798096v17.798095h17.798095v17.798096h-196.510476v-26.819048c0.731429 15.11619 13.165714 27.550476 27.550476 27.550476z m0 0M268.434286 807.740952h535.893333V843.580952H268.434286v-35.84z m0-89.234285h535.893333v35.84H268.434286v-35.84z m0-89.478096h535.893333v35.84H268.434286V629.028571z m0 0" fill="#9FA0A6" /><path d="M179.2 182.613333h285.744762c19.748571 0 35.84 16.091429 35.84 35.84v285.744762c0 19.748571-16.091429 35.84-35.84 35.84H179.2c-19.748571 0-35.84-16.091429-35.84-35.84V218.209524c0-19.504762 16.091429-35.59619 35.84-35.596191z m0 0" fill="#FC495B" /><path d="M411.306667 489.569524c-25.84381 0-49.005714-44.373333-61.196191-73.142857-20.48-8.533333-43.154286-16.579048-65.097143-21.699048-19.260952 12.678095-51.931429 31.695238-77.043809 31.695238-15.60381 0-26.819048-7.801905-30.96381-21.455238-3.169524-11.215238-0.487619-19.017143 2.925715-23.161905 6.582857-9.020952 20.23619-13.653333 40.71619-13.653333 16.579048 0 37.546667 2.925714 60.952381 8.533333 15.11619-10.727619 30.47619-23.161905 44.129524-36.327619-6.095238-28.769524-12.678095-75.337143 4.144762-96.792381 8.289524-10.24 20.967619-13.653333 36.327619-9.020952 16.822857 4.87619 23.161905 15.11619 25.112381 23.161905 7.070476 28.038095-25.112381 65.828571-46.811429 88.015238 4.87619 19.260952 11.215238 39.497143 19.017143 58.026666 31.207619 13.897143 68.266667 34.620952 72.411429 57.295239 1.706667 7.801905-0.731429 15.11619-7.070477 21.455238-5.607619 4.388571-11.459048 7.070476-17.554285 7.070476zM373.028571 426.910476c15.60381 31.695238 30.47619 46.567619 38.278096 46.567619 1.219048 0 2.925714-0.487619 5.363809-2.438095 2.925714-2.925714 2.925714-4.87619 2.438095-6.582857-1.706667-8.289524-14.872381-21.942857-46.08-37.546667z m-152.380952-42.422857c-20.23619 0-25.84381 4.87619-27.550476 7.070476-0.487619 0.731429-1.950476 2.925714-0.487619 8.533334 1.219048 4.87619 4.632381 9.99619 15.11619 9.99619 13.165714 0 32.182857-7.314286 54.369524-20.48-15.847619-3.413333-29.744762-5.12-41.447619-5.12z m81.676191-2.438095c13.165714 3.657143 26.819048 8.289524 39.497142 13.165714-4.632381-11.946667-8.289524-24.380952-11.459047-36.327619-9.264762 8.045714-18.773333 15.847619-28.038095 23.161905z m50.95619-132.876191c-4.632381 0-7.801905 1.706667-10.727619 4.876191-8.533333 10.727619-9.508571 37.790476-2.925714 72.411428 25.112381-26.819048 38.765714-51.44381 35.352381-64.609523-0.487619-1.950476-1.950476-7.801905-13.653334-11.215239-3.169524-0.975238-5.607619-1.462857-8.045714-1.462857z m0 0" fill="#FFFFFF" /></svg>